<svg xmlns="http://www.w3.org/2000/svg" xml:space="preserve" width="2000" height="121" data-id="lg_EGxUkg4be23vc8jVLY" data-version="1" viewBox="0 0 2000 121"><g data-padding="20"><g transform="translate(10 2.157)scale(.96435)"><rect width="409.254" height="120.91" x="421.716" y="-400.275" fill="none" rx="0" ry="0" transform="translate(475.88 400.32)"/><path fill="#fa7275" d="M953.693 58.41q5.46.65 9.95 5.52 4.5 4.86 4.5 12.46 0 7.38-1.07 10.97-1.07 3.58-3.64 4.92t-7.81 1.34q-4.17 0-6.9-1.18t-4.01-3.48q-1.29-2.3-1.29-5.94 0-4.7-.37-7.86-.38-3.16-.97-5.03t-1.76-2.83q-1.18-.97-2.3-1.23-1.13-.27-3.05-.27h-5.67v11.87q0 8.56-3.32 12.26-3.32 3.69-9.74 3.69-6.2 0-9.15-3.48-2.94-3.48-2.94-11.72V33.8q0-6.74 2.52-10.11 2.51-3.37 8.18-3.37 3.32 0 5.51.43 2.2.43 4.28 1.55 2.09 1.13 3.11 3.53 1.01 2.41 1.01 6.16 0 3.31-.05 7.43-.06 4.12-.06 5.83 0 1.39.7 2.36.7.96 2.14 1.55 1.45.59 3.59.59 4.6 0 6.15-3.64t1.55-14.87q0-5.57 3-8.24 2.99-2.68 9.62-2.68 7.17 0 9.63 2.78 2.47 2.79 2.47 9.96 0 11.77-4.12 18.24t-9.69 7.11m52.54-8.23h18.4q5.67 0 7.98 1.81 2.3 1.82 2.3 6.21 0 3.64-2.73 5.19t-8.51 1.55h-17.33v11.34l23.22.11q5.99 0 8.61 1.77 2.62 1.76 2.62 6.26 0 5.13-3.05 7.16-3.05 2.04-9.25 2.04h-34.67q-6.32 0-9.26-3.37t-2.94-11.93V33.16q0-12.84 12.2-12.84h34.67q6.2 0 9.25 1.93 3.05 1.92 3.05 6.95 0 4.71-2.62 6.58-2.62 1.88-8.61 1.88h-23.33Zm71.9 0h18.41q5.67 0 7.97 1.81 2.3 1.82 2.3 6.21 0 3.64-2.73 5.19t-8.5 1.55h-17.34v11.34l23.22.11q5.99 0 8.61 1.77 2.63 1.76 2.63 6.26 0 5.13-3.05 7.16-3.05 2.04-9.26 2.04h-34.67q-6.31 0-9.25-3.37-2.95-3.37-2.95-11.93V33.16q0-12.84 12.2-12.84h34.67q6.21 0 9.26 1.93 3.05 1.92 3.05 6.95 0 4.71-2.63 6.58-2.62 1.88-8.61 1.88h-23.33Zm85.82-4.5q0-3.96-.75-6.26t-2.62-3.48q-1.87-1.17-4.07-1.55-2.19-.37-6.04-.37v23.54q2.99 0 5.29-.54 2.3-.53 4.23-1.82 1.92-1.28 2.94-3.69 1.02-2.4 1.02-5.83m-13.48 25.9v5.99q0 8.66-3.21 12.36-3.21 3.69-9.85 3.69-6.63 0-9.74-3.37-3.1-3.37-3.1-11.93V33.16q0-6.52 3.53-9.68t9.31-3.16h19.05q6.95 0 12.84 1.88 5.88 1.87 10.22 5.24 4.33 3.37 6.74 8.45t2.41 11.29q0 7.6-4.39 13.21-4.39 5.62-11.56 8.4-7.17 2.79-16.15 2.79Zm74.59-39.38v45.37q0 8.34-3.11 12.2-3.1 3.85-9.41 3.85-6.21 0-9.15-3.32t-2.94-11.88V33.16q0-12.84 12.09-12.84 6.2 0 9.36 2.36 3.16 2.35 3.16 9.52m59.48 6.63v38.74q0 6.1-1.5 9.68-1.5 3.59-4.12 4.98t-6.9 1.39q-6.32 0-9.15-3.37-2.84-3.37-2.94-11.93l-.22-39.49h-9.09q-6.74 0-10.11-2.14t-3.37-7.59q0-3.32 1.33-5.25 1.34-1.92 4.02-2.72 2.67-.81 7.16-.81h45.8q5.99 0 8.67 2.14 2.67 2.14 2.67 7.39 0 3.53-1.55 5.51t-4.12 2.72q-2.57.75-6.63.75ZM868.86 6.909c-1.525-1.773-3.968-2.393-6.696-1.55l-14.806 4.588.112-1.24c.111-.905.21-3.36-1.55-5.456-.992-1.19-2.852-2.58-6.175-2.58q-1.116 0-2.394.212c-5.456.905-31.83 7.6-39.432 9.548l-10.812-8.854a4.1 4.1 0 0 0-3.224-.868l-22.519 3.472a4.1 4.1 0 0 0-2.9 1.96l-11.546 19.492a4.1 4.1 0 0 0-.52 2.728c.037.21 3.26 20.46 7.067 40.635 7.155 37.907 10.02 43.115 12.636 44.429l.57.372q1.315.744 2.927.756c1.637 0 3.373-.595 5.32-1.835l.024-.012.868-.558c8.717-5.394 67.58-41.416 68.175-41.763a4.1 4.1 0 0 0 1.612-1.86l24.33-55.304q.21-.496.297-1.017c.111-.744.347-3.274-1.364-5.283M766.51 91.762c-3.546-15.4-8.072-40.002-11.78-63.227l9.784-16.517 18.81-2.914 11.037 8.99a4.07 4.07 0 0 0 3.596.793c12.028-3.087 36.022-9.126 40.734-9.92l.533-.062-.52 5.952-19.209 5.952q-.62.199-1.066.695c-.422.496-10.143 11.805-11.929 13.937-2.058 1.278-16.665 6.895-29.958 11.718-1.166.248-5.878 1.5-6.275 5.308-1.946 18.166-3.1 30.652-3.757 39.308"/></g><path fill="transparent" stroke="transparent" d="M719.5 0h561v121h-561z"/></g></svg>